<svg width="64" height="64" viewBox="0 0 64 64" fill="none" xmlns="http://www.w3.org/2000/svg">
<circle cx="32" cy="32" r="32" fill="#4F2EE8" fill-opacity="0.3"/>
<circle cx="32" cy="32" r="27" fill="#4F2EE8"/>
<path d="M23.3752 34.7L31.7752 26.275C31.8752 26.175 31.9835 26.1043 32.1002 26.063C32.2169 26.021 32.3419 26 32.4752 26C32.6085 26 32.7335 26.021 32.8502 26.063C32.9669 26.1043 33.0752 26.175 33.1752 26.275L41.6002 34.7C41.8335 34.9333 41.9502 35.225 41.9502 35.575C41.9502 35.925 41.8252 36.225 41.5752 36.475C41.3252 36.725 41.0335 36.85 40.7002 36.85C40.3669 36.85 40.0752 36.725 39.8252 36.475L32.4752 29.125L25.1252 36.475C24.8919 36.7083 24.6045 36.825 24.2632 36.825C23.9212 36.825 23.6252 36.7 23.3752 36.45C23.1252 36.2 23.0002 35.9083 23.0002 35.575C23.0002 35.2417 23.1252 34.95 23.3752 34.7Z" fill="white"/>
</svg>
